<svg width="18" height="20" viewBox="0 0 18 20" fill="none" xmlns="http://www.w3.org/2000/svg">
<path d="M4.13022 19.4609H4.13043H13.8696H13.8698C14.7447 19.4599 15.588 19.1556 16.2137 18.6081C16.8403 18.0599 17.1989 17.3104 17.2 16.522V16.5217V6.78261L17.2 6.78233C17.1989 5.99393 16.8403 5.24446 16.2137 4.69621C15.588 4.14871 14.7447 3.84441 13.8698 3.84348H13.8696H13.7217V3.63478H13.8696C14.0991 3.63478 14.3238 3.55523 14.4932 3.40701C14.6634 3.25805 14.7652 3.04984 14.7652 2.82609V1.93435V1.93412C14.7649 1.62416 14.6238 1.33335 14.3839 1.12342C14.1448 0.914224 13.8257 0.80028 13.4976 0.8H13.4974L4.50261 0.8L4.50244 0.8C4.17431 0.80028 3.85522 0.914224 3.61615 1.12342C3.37622 1.33335 3.23513 1.62416 3.23478 1.93413V1.93435V2.82609C3.23478 3.04984 3.33659 3.25805 3.50683 3.40702C3.67622 3.55523 3.90088 3.63478 4.13043 3.63478H4.27826V3.84348H4.13043L4.13022 3.84348C3.2553 3.84441 2.41202 4.14871 1.7863 4.69621C1.15973 5.24446 0.801099 5.99393 0.8 6.78233V6.78261L0.8 16.5217L0.8 16.522C0.801099 17.3104 1.15973 18.0599 1.7863 18.6081C2.41202 19.1556 3.2553 19.4599 4.13022 19.4609ZM12.6261 4.24348H12.6379C12.6301 4.27722 12.6261 4.31214 12.6261 4.34783C12.6261 4.49086 12.6913 4.62166 12.7963 4.71355C12.9004 4.80469 13.0366 4.85217 13.1739 4.85217H13.8694C14.3562 4.85313 14.8274 4.99131 15.2131 5.24321C15.5097 5.4369 15.7424 5.68888 15.8952 5.97391H2.10476C2.25757 5.68888 2.49027 5.4369 2.78689 5.24321C3.17265 4.99131 3.64381 4.85313 4.13056 4.85217H4.82609C4.96339 4.85217 5.09958 4.80469 5.20374 4.71355C5.30875 4.62166 5.37391 4.49086 5.37391 4.34783V3.63478H12.6261V4.04348V4.24348ZM4.33043 2.62609L4.33043 1.93456C4.33043 1.93452 4.33043 1.93448 4.33043 1.93443C4.3305 1.91035 4.34125 1.88092 4.37124 1.85468C4.40214 1.82765 4.4491 1.80874 4.50277 1.8087H13.4972C13.4972 1.8087 13.4973 1.8087 13.4973 1.8087C13.5509 1.80875 13.5979 1.82766 13.6288 1.85468C13.6588 1.88097 13.6695 1.91045 13.6696 1.93456V2.62609H4.33043ZM1.89565 6.98261H16.1043V16.0174H1.89565V6.98261ZM2.65915 17.972C2.32479 17.7184 2.08991 17.388 1.97628 17.0261H16.0237C15.9101 17.388 15.6752 17.7184 15.3408 17.972C14.9355 18.2795 14.4133 18.4516 13.8694 18.4522H4.13064C3.5867 18.4516 3.06445 18.2795 2.65915 17.972Z" fill="#828282" stroke="#828282" stroke-width="0.4"/>
</svg>
