<svg width="16" height="16" viewBox="0 0 16 16" fill="none" xmlns="http://www.w3.org/2000/svg">
<path d="M13.6 1.60014H12.44C12.3445 1.30839 12.1952 1.03707 12 0.800144C11.7736 0.547056 11.4961 0.344881 11.1859 0.206977C10.8756 0.0690725 10.5395 -0.00142161 10.2 0.000152004H5.816C5.47376 -0.00369976 5.13466 0.0656918 4.82144 0.20367C4.50823 0.341649 4.22815 0.545022 4 0.800144C3.79908 1.03578 3.64438 1.30719 3.544 1.60014H2.4C1.76348 1.60014 1.15303 1.85299 0.702944 2.30307C0.252856 2.75316 0 3.3636 0 4.00011V13.6C0 14.2365 0.252856 14.847 0.702944 15.2971C1.15303 15.7471 1.76348 16 2.4 16H13.6C14.2365 16 14.847 15.7471 15.2971 15.2971C15.7471 14.847 16 14.2365 16 13.6V4.00011C16 3.3636 15.7471 2.75316 15.2971 2.30307C14.847 1.85299 14.2365 1.60014 13.6 1.60014ZM5.216 1.87213C5.29097 1.7868 5.38325 1.71841 5.4867 1.67151C5.59016 1.62461 5.70241 1.60028 5.816 1.60014H10.184C10.2976 1.60028 10.4098 1.62461 10.5133 1.67151C10.6168 1.71841 10.709 1.7868 10.784 1.87213C10.8595 1.95613 10.9163 2.05517 10.9508 2.16271C10.9853 2.27026 10.9966 2.38389 10.984 2.49613L10.584 5.6961C10.5604 5.89122 10.4658 6.07084 10.3183 6.20068C10.1707 6.33053 9.98054 6.40151 9.784 6.40009H8.472L9.384 4.48011C9.45795 4.29183 9.45782 4.08252 9.38365 3.89433C9.30948 3.70614 9.16677 3.55303 8.98425 3.46583C8.80173 3.37862 8.59295 3.3638 8.39994 3.42434C8.20693 3.48488 8.04402 3.61629 7.944 3.79212L6.696 6.40009H6.216C6.01946 6.40151 5.82927 6.33053 5.68172 6.20068C5.53417 6.07084 5.43958 5.89122 5.416 5.6961L5.016 2.49613C5.0034 2.38389 5.01471 2.27026 5.04918 2.16271C5.08365 2.05517 5.14051 1.95613 5.216 1.87213ZM14.4 13.6C14.4 13.8122 14.3157 14.0157 14.1657 14.1657C14.0157 14.3157 13.8122 14.4 13.6 14.4H2.4C2.18783 14.4 1.98434 14.3157 1.83431 14.1657C1.68429 14.0157 1.6 13.8122 1.6 13.6V4.00011C1.6 3.78794 1.68429 3.58446 1.83431 3.43443C1.98434 3.28441 2.18783 3.20012 2.4 3.20012H3.496L3.832 5.8961C3.90456 6.48002 4.1891 7.01695 4.63157 7.40484C5.07404 7.79274 5.64359 8.00457 6.232 8.00008H9.8C10.3884 8.00457 10.958 7.79274 11.4004 7.40484C11.8429 7.01695 12.1274 6.48002 12.2 5.8961L12.504 3.20012H13.6C13.8122 3.20012 14.0157 3.28441 14.1657 3.43443C14.3157 3.58446 14.4 3.78794 14.4 4.00011V13.6ZM9.6 11.2H6.4C6.18783 11.2 5.98434 11.2843 5.83431 11.4344C5.68429 11.5844 5.6 11.7879 5.6 12C5.6 12.2122 5.68429 12.4157 5.83431 12.5657C5.98434 12.7157 6.18783 12.8 6.4 12.8H9.6C9.81217 12.8 10.0157 12.7157 10.1657 12.5657C10.3157 12.4157 10.4 12.2122 10.4 12C10.4 11.7879 10.3157 11.5844 10.1657 11.4344C10.0157 11.2843 9.81217 11.2 9.6 11.2Z" fill="#828282"/>
</svg>
