<svg width="20" height="20" viewBox="0 0 20 20" fill="none" xmlns="http://www.w3.org/2000/svg">
<path d="M9.99988 19.1H10C11.7998 19.1 13.5592 18.5663 15.0557 17.5664C16.5522 16.5665 17.7185 15.1452 18.4073 13.4824C19.0961 11.8196 19.2763 9.98991 18.9251 8.22468C18.574 6.45945 17.7073 4.83799 16.4347 3.56533C15.162 2.29268 13.5405 1.42598 11.7753 1.07486C10.0101 0.723733 8.18039 0.903943 6.51758 1.5927C4.85477 2.28146 3.43355 3.44783 2.43363 4.94431C1.4337 6.4408 0.9 8.20019 0.9 10L0.9 10.0001C0.902753 12.4127 1.86237 14.7257 3.56833 16.4317C5.2743 18.1376 7.58729 19.0972 9.99988 19.1ZM10.6429 13.1143H8.07143C7.87441 13.1143 7.68546 13.1926 7.54615 13.3319C7.40683 13.4712 7.32857 13.6601 7.32857 13.8571C7.32857 14.0542 7.40683 14.2431 7.54615 14.3824C7.68546 14.5217 7.87441 14.6 8.07143 14.6H9.25714V15.7857C9.25714 15.9827 9.3354 16.1717 9.47472 16.311C9.61403 16.4503 9.80298 16.5286 10 16.5286C10.197 16.5286 10.386 16.4503 10.5253 16.311C10.6646 16.1717 10.7429 15.9827 10.7429 15.7857V14.5975C11.2445 14.5728 11.7205 14.3626 12.0773 14.0058C12.4577 13.6254 12.6714 13.1094 12.6714 12.5714V11.2857C12.6714 10.7477 12.4577 10.2317 12.0773 9.8513C11.6968 9.47087 11.1809 9.25714 10.6429 9.25714H9.35714C9.21317 9.25714 9.07509 9.19995 8.97328 9.09815C8.87148 8.99634 8.81428 8.85826 8.81428 8.71429V7.42857C8.81428 7.2846 8.87148 7.14652 8.97328 7.04472C9.07509 6.94291 9.21317 6.88572 9.35714 6.88572H11.9286C12.1256 6.88572 12.3145 6.80745 12.4538 6.66814C12.5932 6.52883 12.6714 6.33988 12.6714 6.14286C12.6714 5.94584 12.5932 5.75689 12.4538 5.61758C12.3145 5.47827 12.1256 5.4 11.9286 5.4H10.7429V4.21429C10.7429 4.01727 10.6646 3.82832 10.5253 3.68901C10.386 3.5497 10.197 3.47143 10 3.47143C9.80298 3.47143 9.61403 3.5497 9.47472 3.68901C9.3354 3.82832 9.25714 4.01727 9.25714 4.21429V5.40247C8.75554 5.42721 8.27952 5.63736 7.92272 5.99416C7.54229 6.37459 7.32857 6.89056 7.32857 7.42857V8.71429C7.32857 9.2523 7.54229 9.76827 7.92272 10.1487C8.30316 10.5291 8.81913 10.7429 9.35714 10.7429H10.6429C10.7868 10.7429 10.9249 10.8001 11.0267 10.9019C11.1285 11.0037 11.1857 11.1417 11.1857 11.2857V12.5714C11.1857 12.7154 11.1285 12.8535 11.0267 12.9553C10.9249 13.0571 10.7868 13.1143 10.6429 13.1143ZM10 2.38572C11.506 2.38572 12.9781 2.83229 14.2303 3.66896C15.4824 4.50563 16.4584 5.69481 17.0347 7.08614C17.611 8.47747 17.7618 10.0084 17.468 11.4855C17.1742 12.9625 16.449 14.3192 15.3841 15.3841C14.3192 16.449 12.9625 17.1742 11.4855 17.468C10.0084 17.7618 8.47746 17.611 7.08614 17.0347C5.69481 16.4584 4.50562 15.4824 3.66895 14.2303C2.83228 12.9781 2.38571 11.506 2.38571 10C2.3881 7.9813 3.19108 6.04596 4.61852 4.61852C6.04596 3.19108 7.9813 2.3881 10 2.38572Z" fill="#828282" stroke="#828282" stroke-width="0.2"/>
</svg>
