<svg width="8" height="24" viewBox="0 0 8 24" fill="none" xmlns="http://www.w3.org/2000/svg">
<path fill-rule="evenodd" clip-rule="evenodd" d="M3.01202 3.3429V20.0719L1.72196 18.8032C1.63009 18.7098 1.52007 18.6352 1.3983 18.5837C1.27653 18.5322 1.14546 18.5048 1.01272 18.5031C0.879987 18.5015 0.748244 18.5256 0.625176 18.5741C0.502109 18.6226 0.39018 18.6945 0.295916 18.7856C0.201652 18.8766 0.12694 18.9851 0.076136 19.1046C0.0253322 19.2241 -0.000546567 19.3522 8.75119e-06 19.4816C0.000564069 19.6109 0.027542 19.7389 0.0793701 19.8579C0.131198 19.977 0.206839 20.0849 0.301882 20.1752L3.30204 23.1247C3.39455 23.2162 3.50475 23.2888 3.62626 23.3385C3.74777 23.3882 3.87818 23.4139 4.00995 23.4142C4.14172 23.4145 4.27225 23.3893 4.39397 23.3401C4.51569 23.2909 4.62621 23.2187 4.71911 23.1277L7.71927 20.2044C7.90144 20.0206 8.00224 19.7745 7.99996 19.519C7.99768 19.2635 7.89251 19.0191 7.70709 18.8384C7.52167 18.6577 7.27085 18.5553 7.00864 18.553C6.74643 18.5508 6.49381 18.649 6.3052 18.8265L5.01213 20.0865V3.32731L6.3052 4.58724C6.49381 4.76474 6.74643 4.86296 7.00864 4.86074C7.27085 4.85852 7.52167 4.75604 7.70709 4.57537C7.89251 4.39471 7.99768 4.15031 7.99996 3.89482C8.00224 3.63932 7.90144 3.39318 7.71927 3.2094L4.71911 0.286121C4.62614 0.195186 4.5156 0.123087 4.39389 0.0739799C4.27217 0.024873 4.14169 -0.000269578 4.00995 2.17966e-06C3.87822 0.000273937 3.74784 0.0259548 3.62634 0.0755634C3.50484 0.125172 3.39462 0.197727 3.30204 0.289044L0.301882 3.23863C0.129702 3.42483 0.0376871 3.66846 0.0449215 3.91899C0.052156 4.16952 0.158084 4.40772 0.340736 4.58419C0.523388 4.76066 0.768746 4.86185 1.02592 4.86677C1.28309 4.87169 1.53233 4.77997 1.72196 4.61063L3.01202 3.3429Z" fill="#828282"/>
</svg>
