<svg width="18" height="19" viewBox="0 0 18 19" fill="none" xmlns="http://www.w3.org/2000/svg">
<path d="M12.8786 9.84562L12.918 9.80822C13.1438 9.58923 13.4216 9.41201 13.732 9.28485C14.043 9.15747 14.3823 9.08214 14.729 9.06229L14.7299 9.06224C15.07 9.04401 15.4118 9.08022 15.7348 9.16927C16.0555 9.25766 16.353 9.39684 16.6083 9.58058L17.0058 9.83733L12.8786 9.84562ZM12.8786 9.84562L12.8735 4.04233V4.04218C12.8721 3.08378 11.9438 2.38287 10.9094 2.38287C10.6531 2.38286 10.3995 2.42469 10.1642 2.50578V2.40711C10.1642 2.4071 10.1642 2.40709 10.1642 2.40708C10.1643 1.44725 9.2351 0.75 8.2007 0.75H8.16884C7.34786 0.75 6.60199 1.18379 6.32185 1.84126C6.05525 1.73063 5.75974 1.6728 5.46038 1.67199H5.45971C4.42396 1.67199 3.49877 2.37212 3.49877 3.33138V4.36078C3.26226 4.28414 3.00332 4.24794 2.74699 4.24794H2.71692C1.68601 4.24794 0.756092 4.93852 0.753291 5.89674L12.8786 9.84562ZM1.97141 5.89952L1.97141 5.89957C1.96495 8.00337 1.96944 11.8301 1.97276 14.6302M1.97141 5.89952L9.55531 10.0999C9.62764 10.1001 9.70021 10.0892 9.76927 10.067C9.83837 10.0449 9.90452 10.0112 9.96279 9.96584C10.0211 9.92041 10.0717 9.86307 10.1077 9.79496C10.144 9.72646 10.164 9.64979 10.1637 9.57009V9.57005C10.1632 9.47424 10.1634 8.76288 10.1636 7.7884C10.1637 7.36337 10.1638 6.88829 10.1639 6.3924L10.1643 4.02891V4.02887V4.02691C10.1662 3.89131 10.2322 3.74672 10.3751 3.62558L10.3763 3.62453C10.4387 3.57097 10.5181 3.52522 10.611 3.49283C10.7037 3.46054 10.8057 3.44303 10.9101 3.44241C11.3583 3.4427 11.655 3.74768 11.6554 4.04336L11.6617 11.2081V11.2081C11.6618 11.3341 11.7123 11.4486 11.7918 11.5365L11.9772 11.3689L11.7918 11.5366C11.8704 11.6234 11.9739 11.6816 12.0826 11.7119C12.1917 11.7423 12.3085 11.7456 12.4191 11.7217C12.5294 11.698 12.6359 11.6466 12.7202 11.5667L12.7202 11.5667L13.8181 10.5253L13.8181 10.5253L13.8207 10.5228C13.9351 10.4111 14.0812 10.3156 14.2519 10.2452C14.4223 10.1749 14.6115 10.1318 14.8075 10.12C14.9986 10.1103 15.1897 10.1314 15.3682 10.1813C15.5471 10.2314 15.7075 10.3086 15.8403 10.406L12.1923 15.8649L12.1922 15.865C11.6526 16.673 10.6164 17.1903 9.47538 17.1903H5.07641C3.32407 17.1903 1.97459 16.006 1.97276 14.6302M1.97141 5.89952C1.97226 5.60726 2.26596 5.30761 2.71692 5.30761H2.74699C3.20424 5.30761 3.49877 5.6052 3.49877 5.89397V9.57416C3.49877 9.73765 3.58248 9.87742 3.70026 9.96922C3.81659 10.0599 3.96372 10.104 4.10784 10.104C4.25195 10.104 4.39909 10.0599 4.51541 9.96922C4.6332 9.87742 4.7169 9.73765 4.7169 9.57416V3.33138C4.7169 3.03284 5.00658 2.72998 5.45612 2.72998C5.90162 2.72998 6.19175 3.03227 6.19175 3.33138V9.57416C6.19175 9.73765 6.27545 9.87742 6.39323 9.96922C6.50956 10.0599 6.65669 10.104 6.80081 10.104C6.94492 10.104 7.09206 10.0599 7.20838 9.96922C7.32617 9.87742 7.40987 9.73765 7.40987 9.57416V2.40407C7.40987 2.11443 7.71242 1.80967 8.16884 1.80967H8.2007C8.65121 1.80967 8.94621 2.11262 8.94621 2.40705V4.01395L1.97141 5.89952ZM1.97276 14.6302L1.72276 14.6305L1.97276 14.6302ZM9.47538 18.25C11.0239 18.25 12.4738 17.5558 13.245 16.4011L0.753291 5.89678C0.746826 8.0028 0.751316 11.8314 0.754637 14.6314L0.754637 14.6314C0.757344 16.6729 2.74197 18.25 5.07641 18.25H9.47538Z" fill="#828282" stroke="#828282" stroke-width="0.5"/>
</svg>
