<svg width="16" height="20" viewBox="0 0 16 20" fill="none" xmlns="http://www.w3.org/2000/svg">
<path d="M13.6 0H2.4C1.76348 0 1.15303 0.223507 0.702944 0.621352C0.252856 1.0192 0 1.55879 0 2.12143V17.6786C0 18.2412 0.252856 18.7808 0.702944 19.1786C1.15303 19.5765 1.76348 19.8 2.4 19.8H13.6C14.2365 19.8 14.847 19.5765 15.2971 19.1786C15.7471 18.7808 16 18.2412 16 17.6786V2.12143C16 1.55879 15.7471 1.0192 15.2971 0.621352C14.847 0.223507 14.2365 0 13.6 0ZM14.4 17.6786C14.4 17.8661 14.3157 18.046 14.1657 18.1786C14.0157 18.3112 13.8122 18.3857 13.6 18.3857H2.4C2.18783 18.3857 1.98434 18.3112 1.83431 18.1786C1.68429 18.046 1.6 17.8661 1.6 17.6786V2.12143C1.6 1.93388 1.68429 1.75402 1.83431 1.6214C1.98434 1.48879 2.18783 1.41429 2.4 1.41429H13.6C13.8122 1.41429 14.0157 1.48879 14.1657 1.6214C14.3157 1.75402 14.4 1.93388 14.4 2.12143V17.6786Z" fill="#828282"/>
<path d="M12 4.24292H4.00001C3.78784 4.24292 3.58436 4.31742 3.43433 4.45004C3.2843 4.58265 3.20001 4.76252 3.20001 4.95006C3.20001 5.13761 3.2843 5.31747 3.43433 5.45009C3.58436 5.5827 3.78784 5.65721 4.00001 5.65721H12C12.2122 5.65721 12.4157 5.5827 12.5657 5.45009C12.7157 5.31747 12.8 5.13761 12.8 4.95006C12.8 4.76252 12.7157 4.58265 12.5657 4.45004C12.4157 4.31742 12.2122 4.24292 12 4.24292ZM12 7.07149H4.00001C3.78784 7.07149 3.58436 7.14599 3.43433 7.27861C3.2843 7.41122 3.20001 7.59109 3.20001 7.77863C3.20001 7.96618 3.2843 8.14604 3.43433 8.27866C3.58436 8.41127 3.78784 8.48578 4.00001 8.48578H12C12.2122 8.48578 12.4157 8.41127 12.5657 8.27866C12.7157 8.14604 12.8 7.96618 12.8 7.77863C12.8 7.59109 12.7157 7.41122 12.5657 7.27861C12.4157 7.14599 12.2122 7.07149 12 7.07149ZM12 9.90006H4.00001C3.78784 9.90006 3.58436 9.97456 3.43433 10.1072C3.2843 10.2398 3.20001 10.4197 3.20001 10.6072C3.20001 10.7948 3.2843 10.9746 3.43433 11.1072C3.58436 11.2398 3.78784 11.3143 4.00001 11.3143H12C12.2122 11.3143 12.4157 11.2398 12.5657 11.1072C12.7157 10.9746 12.8 10.7948 12.8 10.6072C12.8 10.4197 12.7157 10.2398 12.5657 10.1072C12.4157 9.97456 12.2122 9.90006 12 9.90006ZM11.5728 14.6492C11.426 14.5327 11.2357 14.4683 11.0384 14.4683C10.8411 14.4683 10.6508 14.5327 10.504 14.6492L10.08 14.9915L9.65601 14.6535C9.50906 14.5364 9.31824 14.4716 9.12041 14.4716C8.92258 14.4716 8.73177 14.5364 8.58481 14.6535L8.16161 14.9908L7.73841 14.6535C7.57953 14.5406 7.3779 14.4856 7.17471 14.4998C6.97151 14.5139 6.78207 14.596 6.64506 14.7294C6.50804 14.8628 6.43379 15.0373 6.43747 15.2175C6.44114 15.3976 6.52245 15.5697 6.66481 15.6986L7.62481 16.4623C7.77176 16.5794 7.96258 16.6442 8.16041 16.6442C8.35824 16.6442 8.54906 16.5794 8.69601 16.4623L9.11761 16.1257L9.54081 16.4623C9.68772 16.5792 9.87837 16.6439 10.076 16.6439C10.2737 16.6439 10.4643 16.5792 10.6112 16.4623L11.0392 16.1229L11.4664 16.4623C11.5422 16.5336 11.6338 16.5903 11.7356 16.6286C11.8373 16.667 11.947 16.6863 12.0576 16.6854C12.1682 16.6844 12.2774 16.6631 12.3783 16.6229C12.4791 16.5827 12.5695 16.5245 12.6436 16.4519C12.7177 16.3793 12.774 16.2939 12.8088 16.201C12.8437 16.1082 12.8564 16.01 12.8461 15.9127C12.8358 15.8153 12.8028 15.7209 12.7492 15.6353C12.6955 15.5498 12.6224 15.475 12.5344 15.4158L11.5728 14.6492Z" fill="#828282"/>
</svg>
