<svg width="22" height="28" viewBox="0 0 22 28" fill="none" xmlns="http://www.w3.org/2000/svg">
<path d="M3.23071 3C3.23071 1.34315 4.57386 0 6.23071 0H6.46148V12.9231H3.23071V3Z" fill="#D6D9E0"/>
<path d="M15.0769 0H15.3077C16.9645 0 18.3077 1.34315 18.3077 3V12.9231H15.0769V0Z" fill="#D6D9E0"/>
<rect x="9.15381" width="3.23077" height="12.9231" fill="#D6D9E0"/>
<path fill-rule="evenodd" clip-rule="evenodd" d="M10.7692 27.9999C16.7169 27.9999 21.5385 23.1783 21.5385 17.2307C21.5385 11.283 16.7169 6.46143 10.7692 6.46143C4.82155 6.46143 0 11.283 0 17.2307C0 23.1783 4.82155 27.9999 10.7692 27.9999Z" fill="#F6B191"/>
<path fill-rule="evenodd" clip-rule="evenodd" d="M10.7692 24.7693C14.9326 24.7693 18.3076 21.3942 18.3076 17.2308C18.3076 13.0675 14.9326 9.69238 10.7692 9.69238C6.6058 9.69238 3.23071 13.0675 3.23071 17.2308C3.23071 21.3942 6.6058 24.7693 10.7692 24.7693Z" fill="#DE7F65"/>
<path d="M10.4894 20.8022C9.77073 20.8022 9.16757 20.6904 8.6799 20.4667C8.19223 20.243 7.8329 19.9662 7.6019 19.6362C7.3709 19.3062 7.24807 18.9762 7.2334 18.6462C7.2334 18.5802 7.25723 18.5252 7.3049 18.4812C7.35257 18.4372 7.4094 18.4152 7.4754 18.4152H8.9934C9.0814 18.4152 9.15106 18.4317 9.2024 18.4647C9.25373 18.4977 9.3014 18.5509 9.3454 18.6242C9.48473 18.9835 9.86973 19.1632 10.5004 19.1632C10.8597 19.1632 11.1384 19.0789 11.3364 18.9102C11.5344 18.7415 11.6334 18.5142 11.6334 18.2282C11.6334 17.6782 11.2667 17.4032 10.5334 17.4032H9.3014C9.22073 17.4032 9.1529 17.3757 9.0979 17.3207C9.0429 17.2657 9.0154 17.1979 9.0154 17.1172V16.4682C9.0154 16.2995 9.07773 16.1749 9.2024 16.0942L10.9734 14.6422H7.9374C7.86406 14.6422 7.7999 14.6147 7.7449 14.5597C7.6899 14.5047 7.6624 14.4405 7.6624 14.3672V13.2782C7.6624 13.1975 7.68806 13.1297 7.7394 13.0747C7.79073 13.0197 7.85673 12.9922 7.9374 12.9922H13.0634C13.1441 12.9922 13.2101 13.0197 13.2614 13.0747C13.3127 13.1297 13.3384 13.1975 13.3384 13.2782V14.2572C13.3384 14.3804 13.3009 14.4825 13.2258 14.5634L11.5344 16.1052L11.6114 16.1272C12.2714 16.2225 12.7957 16.4499 13.1844 16.8092C13.5731 17.1685 13.7674 17.6855 13.7674 18.3602C13.7674 18.8515 13.6262 19.2824 13.3439 19.6527C13.0616 20.023 12.6729 20.3072 12.1779 20.5052C11.6829 20.7032 11.1201 20.8022 10.4894 20.8022Z" fill="white"/>
</svg>
