<svg width="16" height="16" viewBox="0 0 11 12" fill="none" xmlns="http://www.w3.org/2000/svg">
<path fill-rule="evenodd" clip-rule="evenodd" d="M4.75068 0.302033C5.0428 -0.100676 5.58836 -0.100677 5.88048 0.302027L6.3632 0.967571C6.4294 1.05881 6.53978 1.0922 6.63751 1.05053L7.3504 0.746601C7.78172 0.562696 8.25422 0.870617 8.32879 1.38423L8.45207 2.23305C8.46896 2.34941 8.54976 2.44062 8.65284 2.45969L9.40486 2.59882C9.85989 2.68299 10.1327 3.21632 9.96974 3.70321L9.70049 4.50788C9.66354 4.61819 9.69314 4.74278 9.77398 4.81748L10.3636 5.36239C10.7204 5.69207 10.7204 6.30792 10.3636 6.6376L9.77398 7.18253C9.69314 7.25719 9.66354 7.38179 9.70049 7.49211L9.96974 8.29678C10.1327 8.78369 9.85989 9.31697 9.40486 9.40119L8.65284 9.5403C8.54976 9.55936 8.46896 9.65056 8.45207 9.76697L8.32879 10.6158C8.25422 11.1294 7.78172 11.4373 7.3504 11.2534L6.63751 10.9495C6.53978 10.9078 6.4294 10.9412 6.3632 11.0324L5.88048 11.698C5.58841 12.1007 5.0428 12.1007 4.75068 11.698L4.26796 11.0324C4.20178 10.9412 4.0914 10.9078 3.99367 10.9495L3.28079 11.2534C2.84944 11.4373 2.37695 11.1294 2.30237 10.6158L2.17912 9.76697C2.16222 9.65056 2.08142 9.55936 1.97833 9.5403L1.22633 9.40119C0.771309 9.31697 0.498512 8.78369 0.661439 8.29678L0.930697 7.49211C0.967609 7.38179 0.938037 7.25719 0.857204 7.18253L0.267577 6.6376C-0.0891919 6.30792 -0.0891929 5.69207 0.267577 5.36239L0.857204 4.81748C0.938032 4.74278 0.967609 4.61819 0.930697 4.50788L0.661439 3.70321C0.498512 3.21632 0.771309 2.68299 1.22633 2.59882L1.97833 2.45969C2.08142 2.44062 2.16222 2.34941 2.17912 2.23305L2.30237 1.38423C2.37695 0.870617 2.84944 0.562702 3.28079 0.746601L3.99367 1.05053C4.0914 1.0922 4.20178 1.05881 4.26796 0.967571L4.75068 0.302033Z" fill="#0E9F33"/>
<path fill-rule="evenodd" clip-rule="evenodd" d="M8.16478 4.27141L4.75781 8.11707C4.71215 8.16855 4.65024 8.1975 4.5857 8.1975C4.52117 8.1975 4.45931 8.16855 4.41365 8.11707L2.4668 5.91956L2.81096 5.5311L4.5857 7.53435L7.82063 3.88293L8.16478 4.27141Z" fill="white"/>
</svg>
