<svg width="400" height="230" viewBox="0 0 293 179" fill="none" xmlns="http://www.w3.org/2000/svg">
    <path fill-rule="evenodd" clip-rule="evenodd"
          d="M276.007 46.5954C278.42 50.3252 282.777 52.7303 287.574 53C287.682 53 288.45 52.1409 288.396 52.1901C289.052 51.5278 289.684 50.89 290.314 50.2276C290.944 49.5645 291.602 48.9022 292.232 48.2398C292.342 48.1169 292.89 47.4053 293 47.4053C288.204 47.1356 283.846 44.7306 281.434 41C281.516 41.1229 278.912 43.528 278.693 43.7731C278.446 44.0182 275.844 46.3503 276.007 46.5954Z"
          fill="#FFBC1F"/>
    <path fill-rule="evenodd" clip-rule="evenodd"
          d="M59 100.763C60.8247 101.515 62.6751 102.247 64.4998 102.999C64.6501 103.063 66.8998 99.1935 67 99.2366C65.1746 98.4839 63.3249 97.7528 61.5002 97.0008C61.3499 96.9355 59.0751 100.784 59 100.763Z"
          fill="#7FE3F0"/>
    <path fill-rule="evenodd" clip-rule="evenodd"
          d="M52.1058 160.909C54.7174 161.614 57.3281 162.295 59.9658 163C59.8873 162.975 59.9658 160.763 59.9658 160.545C59.9658 160.326 60.0705 158.139 59.9135 158.09C57.3019 157.385 54.6912 156.705 52.0535 156C52.132 156.024 52.0535 158.236 52.0535 158.454C52.0273 158.698 51.9227 160.885 52.1058 160.909Z"
          fill="#FF8164"/>
    <path fill-rule="evenodd" clip-rule="evenodd"
          d="M124.204 -3.93381C123.616 -2.16016 124.321 -0.291798 126.044 0.895713C126.319 1.08513 127.651 0.958632 128.023 0.958632C128.492 0.974527 128.942 0.974527 129.413 0.990423C129.511 0.990423 129.921 0.942737 130 0.990423C128.277 -0.212984 127.552 -2.06545 128.159 -3.83844C128.081 -3.61723 124.302 -4.18681 124.204 -3.93381Z"
          fill="#30D6AF"/>
    <path fill-rule="evenodd" clip-rule="evenodd"
          d="M49.0263 32.5914C50.2134 34.9107 52.9168 36.2578 55.7317 35.9587C55.8967 35.9337 56.3382 34.3375 56.3935 34.1626C56.4488 33.9885 56.8626 32.3673 57 32.3673C54.186 32.6664 51.5102 31.3201 50.2955 29C50.4337 29.2499 49.7442 30.522 49.6337 30.7961C49.5231 31.1202 48.8613 32.2673 49.0263 32.5914Z"
          fill="#AF8EFF"/>
    <path fill-rule="evenodd" clip-rule="evenodd"
          d="M259.487 107.084C257.765 108.811 257.528 111.019 258.833 112.942C258.923 113.073 260.853 112.942 261.091 112.942C261.328 112.942 263.258 112.81 263.347 112.92C262.041 110.997 262.308 108.789 264 107.062C263.882 107.193 262.011 107.062 261.743 107.062C261.417 107.062 259.665 106.909 259.487 107.084Z"
          fill="#FF9B90"/>
    <path fill-rule="evenodd" clip-rule="evenodd"
          d="M89.8739 16.0037C88.5915 16.998 87.2824 17.9711 86 18.9653C86.0803 18.9018 88.9922 21.1023 89.1261 20.9963C90.4085 20.002 91.7176 19.0289 93 18.0347C92.8929 18.0982 90.0078 15.8977 89.8739 16.0037Z"
          fill="#1F87FE"/>
    <path fill-rule="evenodd" clip-rule="evenodd"
          d="M28.8739 6.00371C27.5915 6.99799 26.2824 7.97107 25 8.96534C25.0803 8.90175 27.9922 11.1023 28.1261 10.9963C29.4085 10.002 30.7176 9.02893 32 8.03466C31.8929 8.09825 29.0078 5.89772 28.8739 6.00371Z"
          fill="#1F87FE"/>
    <path fill-rule="evenodd" clip-rule="evenodd"
          d="M120.893 126.004C118.161 126.474 115.931 128.303 115.003 130.875C114.878 131.196 118.211 132.728 118.112 133C119.063 130.429 121.268 128.6 124 128.131C123.75 128.18 122.697 127.216 122.446 127.042C122.196 126.845 121.243 125.93 120.893 126.004Z"
          fill="#7FE3F0"/>
    <path fill-rule="evenodd" clip-rule="evenodd"
          d="M2.94779 42.0718C1.96675 43.7928 0.986549 45.5132 0.00551543 47.2335C-0.15301 47.5162 3.15943 49.331 3.02746 49.5671C4.00767 47.8468 4.9887 46.1257 5.96974 44.4054C6.12909 44.122 2.78926 42.3072 2.94779 42.0718Z"
          fill="#7FE3F0"/>
    <path fill-rule="evenodd" clip-rule="evenodd"
          d="M214.093 16.7716C213.674 19.0784 214.68 21.3233 216.887 22.9917C216.999 23.0948 219.207 22.2087 219.458 22.1262C219.682 22.0443 221.888 21.1588 222 21.2201C219.794 19.5724 218.76 17.3075 219.207 15C219.178 15.1651 216.915 15.7623 216.635 15.8655C216.3 15.9893 214.149 16.5246 214.093 16.7716Z"
          fill="#7FE3F0"/>
    <path fill-rule="evenodd" clip-rule="evenodd"
          d="M168.052 48.4301C170.515 49.2944 172.979 50.1358 175.442 51C175.357 50.9778 175.721 48.9621 175.721 48.7846C175.749 48.5855 176.141 46.6364 175.946 46.5692C173.483 45.7056 171.019 44.8636 168.556 44C168.64 44.0222 168.276 46.0379 168.276 46.2154C168.276 46.4145 167.856 48.3636 168.052 48.4301Z"
          fill="#7FE3F0"/>
    <path fill-rule="evenodd" clip-rule="evenodd"
          d="M227 5H232.716C232.858 5 232.943 1 233 1H227.284C227.17 1 227.057 5 227 5Z" fill="#FF9B90"/>
    <path fill-rule="evenodd" clip-rule="evenodd"
          d="M169 19H174.715C174.858 19 174.942 15 175 15H169.284C169.17 15 169.056 19 169 19Z" fill="#FF9B90"/>
    <path fill-rule="evenodd" clip-rule="evenodd"
          d="M232.956 82.896C230.168 81.9311 227.378 80.9655 224.59 80C224.855 80.0942 222.686 85.4328 223.039 85.565C225.829 86.5305 228.618 87.496 231.407 88.4615C231.142 88.3667 233.333 83.0098 232.956 82.896Z"
          fill="#1F87FE"/>
    <path fill-rule="evenodd" clip-rule="evenodd"
          d="M231 174.814C228.57 174.534 226.139 174.252 223.71 174C223.601 174 223.055 178.185 223 178.185C225.43 178.466 227.86 178.747 230.29 179C230.4 179.028 230.946 174.814 231 174.814Z"
          fill="#FFBC1F"/>
    <path fill-rule="evenodd" clip-rule="evenodd"
          d="M279 5C279.712 6.60858 280.424 8.21784 281.137 9.8482C281.219 10.0436 282.808 10.3479 283.055 10.435C283.329 10.5221 284.918 10.7828 285 11C284.287 9.39142 283.575 7.78216 282.863 6.1518C282.781 5.95643 281.192 5.65214 280.946 5.56501C280.671 5.47856 279.082 5.19537 279 5Z"
          fill="#7FE3F0"/>
</svg>
