<svg width="22" height="28" viewBox="0 0 22 28" fill="none" xmlns="http://www.w3.org/2000/svg">
<path d="M3.23071 3C3.23071 1.34315 4.57386 0 6.23071 0H6.46148V12.9231H3.23071V3Z" fill="#D6D9E0"/>
<path d="M15.0769 0H15.3077C16.9645 0 18.3077 1.34315 18.3077 3V12.9231H15.0769V0Z" fill="#D6D9E0"/>
<rect x="9.15381" width="3.23077" height="12.9231" fill="#D6D9E0"/>
<path fill-rule="evenodd" clip-rule="evenodd" d="M10.7692 27.9999C16.7169 27.9999 21.5385 23.1783 21.5385 17.2307C21.5385 11.283 16.7169 6.46143 10.7692 6.46143C4.82155 6.46143 0 11.283 0 17.2307C0 23.1783 4.82155 27.9999 10.7692 27.9999Z" fill="#FFE609"/>
<path fill-rule="evenodd" clip-rule="evenodd" d="M10.7692 24.7693C14.9326 24.7693 18.3076 21.3942 18.3076 17.2308C18.3076 13.0675 14.9326 9.69238 10.7692 9.69238C6.6058 9.69238 3.23071 13.0675 3.23071 17.2308C3.23071 21.3942 6.6058 24.7693 10.7692 24.7693Z" fill="#FFBD20"/>
<path d="M10.3432 20.6922C10.2698 20.6922 10.2057 20.6647 10.1507 20.6097C10.0957 20.5547 10.0682 20.4905 10.0682 20.4172V15.2692L8.59417 16.4022C8.5355 16.4389 8.4805 16.4572 8.42917 16.4572C8.34117 16.4572 8.26417 16.4132 8.19817 16.3252L7.51617 15.4452C7.48683 15.3939 7.47217 15.3389 7.47217 15.2802C7.47217 15.1775 7.5125 15.0969 7.59317 15.0382L10.1452 13.0692C10.2185 13.0179 10.3028 12.9922 10.3982 12.9922H11.8502C11.9308 12.9922 11.9987 13.0179 12.0537 13.0692C12.1087 13.1205 12.1362 13.1865 12.1362 13.2672V20.4172C12.1362 20.4979 12.1087 20.5639 12.0537 20.6152C11.9987 20.6665 11.9308 20.6922 11.8502 20.6922H10.3432Z" fill="white"/>
</svg>
