<svg width="22" height="28" viewBox="0 0 22 28" fill="none" xmlns="http://www.w3.org/2000/svg">
<path d="M3.23071 3C3.23071 1.34315 4.57386 0 6.23071 0H6.46148V12.9231H3.23071V3Z" fill="#D6D9E0"/>
<path d="M15.0769 0H15.3077C16.9645 0 18.3077 1.34315 18.3077 3V12.9231H15.0769V0Z" fill="#D6D9E0"/>
<rect x="9.15381" width="3.23077" height="12.9231" fill="#D6D9E0"/>
<path fill-rule="evenodd" clip-rule="evenodd" d="M10.7692 27.9999C16.7169 27.9999 21.5385 23.1783 21.5385 17.2307C21.5385 11.283 16.7169 6.46143 10.7692 6.46143C4.82155 6.46143 0 11.283 0 17.2307C0 23.1783 4.82155 27.9999 10.7692 27.9999Z" fill="#E1E1E2"/>
<path fill-rule="evenodd" clip-rule="evenodd" d="M10.7692 24.7693C14.9326 24.7693 18.3076 21.3942 18.3076 17.2308C18.3076 13.0675 14.9326 9.69238 10.7692 9.69238C6.6058 9.69238 3.23071 13.0675 3.23071 17.2308C3.23071 21.3942 6.6058 24.7693 10.7692 24.7693Z" fill="#ABB5BC"/>
<path d="M7.61826 20.6921C7.54493 20.6921 7.48076 20.6646 7.42576 20.6096C7.37076 20.5546 7.34326 20.4905 7.34326 20.4171V19.5921C7.34326 19.3721 7.43493 19.1888 7.61826 19.0421L8.64126 18.0411L9.2811 17.5522C9.66976 17.2524 9.98265 17.0047 10.2198 16.8091C10.5754 16.5158 10.8468 16.25 11.0338 16.0116C11.2208 15.7733 11.3143 15.5478 11.3143 15.3351C11.3143 14.7925 11.0429 14.5211 10.5003 14.5211C10.2143 14.5211 9.99426 14.6073 9.84026 14.7796C9.68626 14.952 9.5836 15.1665 9.53226 15.4231C9.48826 15.5918 9.3636 15.6761 9.15826 15.6761H7.70626C7.64026 15.6761 7.58343 15.6523 7.53576 15.6046C7.48809 15.557 7.46426 15.5038 7.46426 15.4451C7.47893 14.9611 7.61276 14.523 7.86576 14.1306C8.11876 13.7383 8.47259 13.4266 8.92726 13.1956C9.38193 12.9646 9.90626 12.8491 10.5003 12.8491C11.1163 12.8491 11.6479 12.9481 12.0953 13.1461C12.5426 13.3441 12.8818 13.6228 13.1128 13.9821C13.3438 14.3415 13.4593 14.7595 13.4593 15.2361C13.4593 15.7641 13.2961 16.2408 12.9698 16.6661C12.6434 17.0915 12.1466 17.5535 11.4793 18.0521L10.5663 18.9651H13.3493C13.4299 18.9651 13.4959 18.9908 13.5473 19.0421C13.5986 19.0935 13.6243 19.1595 13.6243 19.2401V20.4171C13.6243 20.4905 13.5986 20.5546 13.5473 20.6096C13.4959 20.6646 13.4299 20.6921 13.3493 20.6921H7.61826Z" fill="white"/>
</svg>
